<svg width="26" height="26" viewBox="0 0 26 26" fill="none" xmlns="http://www.w3.org/2000/svg">
<path d="M22.8208 0.499939H3.17796C2.46756 0.499939 1.78625 0.782145 1.28393 1.28447C0.781595 1.7868 0.49939 2.46811 0.49939 3.17851L0.49939 22.8214C0.49939 23.5318 0.781595 24.2131 1.28393 24.7154C1.78625 25.2177 2.46756 25.4999 3.17796 25.4999H10.837V17.0005H7.32138V12.9999H10.837V9.95083C10.837 6.48264 12.9017 4.5669 16.0641 4.5669C17.5786 4.5669 19.1623 4.83699 19.1623 4.83699V8.24101H17.4174C15.6981 8.24101 15.1618 9.30797 15.1618 10.4023V12.9999H18.9999L18.3861 17.0005H15.1618V25.4999H22.8208C23.5312 25.4999 24.2125 25.2177 24.7149 24.7154C25.2172 24.2131 25.4994 23.5318 25.4994 22.8214V3.17851C25.4994 2.46811 25.2172 1.7868 24.7149 1.28447C24.2125 0.782145 23.5312 0.499939 22.8208 0.499939Z" fill="#918E9B"/>
</svg>
