<svg width="26" height="26" viewBox="0 0 26 26" fill="none" xmlns="http://www.w3.org/2000/svg">
<path d="M22.8208 0.499939H3.17796C1.69917 0.499939 0.49939 1.69972 0.49939 3.17851V22.8214C0.49939 24.3002 1.69917 25.4999 3.17796 25.4999H22.8208C24.2996 25.4999 25.4994 24.3002 25.4994 22.8214V3.17851C25.4994 1.69972 24.2996 0.499939 22.8208 0.499939ZM15.9737 21.9118C15.505 21.9955 15.332 21.7053 15.332 21.4653C15.332 21.164 15.3431 19.6238 15.3431 18.3794C15.3431 17.5089 15.053 16.9564 14.7126 16.6662C16.7773 16.4374 18.9536 16.1528 18.9536 12.587C18.9536 11.5714 18.5909 11.0636 17.9994 10.4107C18.0943 10.1707 18.4123 9.18298 17.9045 7.89949C17.1289 7.65954 15.3543 8.89838 15.3543 8.89838C14.6177 8.6919 13.8197 8.58588 13.0329 8.58588C12.246 8.58588 11.4481 8.6919 10.7114 8.89838C10.7114 8.89838 8.93689 7.65954 8.16122 7.89949C7.65341 9.17739 7.96591 10.1651 8.06635 10.4107C7.47484 11.0636 7.19582 11.5714 7.19582 12.587C7.19582 16.1361 9.27729 16.4374 11.342 16.6662C11.0742 16.9062 10.8342 17.3191 10.7505 17.9107C10.2204 18.1506 8.86435 18.5636 8.05519 17.135C7.54738 16.2533 6.6322 16.1807 6.6322 16.1807C5.72818 16.1696 6.57082 16.7499 6.57082 16.7499C7.1735 17.029 7.5976 18.1004 7.5976 18.1004C8.1389 19.7578 10.7282 19.1997 10.7282 19.1997C10.7282 19.9754 10.7393 21.2365 10.7393 21.4653C10.7393 21.7053 10.5719 21.9955 10.0976 21.9118C6.41457 20.6785 3.83644 17.174 3.83644 13.0781C3.83644 7.9553 7.75385 4.06579 12.8766 4.06579C17.9994 4.06579 22.1512 7.9553 22.1512 13.0781C22.1568 17.174 19.6568 20.6841 15.9737 21.9118ZM10.4994 18.5022C10.3934 18.5245 10.2929 18.4799 10.2818 18.4073C10.2706 18.3236 10.3431 18.2511 10.4492 18.2287C10.5552 18.2176 10.6556 18.2622 10.6668 18.3348C10.6835 18.4073 10.611 18.4799 10.4994 18.5022ZM9.96926 18.452C9.96926 18.5245 9.88555 18.5859 9.77394 18.5859C9.65118 18.597 9.56747 18.5357 9.56747 18.452C9.56747 18.3794 9.65118 18.318 9.76278 18.318C9.86881 18.3069 9.96926 18.3682 9.96926 18.452ZM9.20475 18.3906C9.18243 18.4631 9.07082 18.4966 8.97595 18.4631C8.86993 18.4408 8.79738 18.3571 8.8197 18.2845C8.84202 18.212 8.95363 18.1785 9.0485 18.2008C9.1601 18.2343 9.23265 18.318 9.20475 18.3906ZM8.51836 18.0892C8.46814 18.1506 8.36211 18.1395 8.27841 18.0557C8.1947 17.9832 8.17238 17.8772 8.22818 17.8269C8.27841 17.7656 8.38443 17.7767 8.46814 17.8604C8.54068 17.933 8.56859 18.0446 8.51836 18.0892ZM8.01055 17.5814C7.96033 17.6149 7.86546 17.5814 7.80408 17.4977C7.74269 17.414 7.74269 17.3191 7.80408 17.2801C7.86546 17.2299 7.96033 17.2689 8.01055 17.3526C8.07194 17.4363 8.07194 17.5368 8.01055 17.5814ZM7.64783 17.0401C7.5976 17.0903 7.5139 17.0624 7.45252 17.0066C7.39113 16.9341 7.37997 16.8504 7.43019 16.8113C7.48042 16.7611 7.56412 16.789 7.62551 16.8448C7.68689 16.9174 7.69805 17.0011 7.64783 17.0401ZM7.27394 16.6272C7.25162 16.6774 7.17908 16.6886 7.11769 16.6495C7.04515 16.616 7.01167 16.5546 7.03399 16.5044C7.05631 16.4709 7.11769 16.4542 7.19024 16.4821C7.26278 16.5211 7.29627 16.5825 7.27394 16.6272Z" fill="#918E9B"/>
</svg>
