<svg width="26" height="26" viewBox="0 0 26 26" fill="none" xmlns="http://www.w3.org/2000/svg">
<path d="M12.9994 10.0234C12.4107 10.0236 11.8354 10.1984 11.346 10.5256C10.8567 10.8528 10.4753 11.3177 10.2502 11.8616C10.0251 12.4055 9.9663 13.004 10.0813 13.5813C10.1963 14.1586 10.4798 14.6889 10.8962 15.1051C11.3125 15.5213 11.8429 15.8046 12.4202 15.9194C12.9976 16.0342 13.596 15.9751 14.1398 15.7498C14.6837 15.5245 15.1485 15.143 15.4755 14.6535C15.8025 14.164 15.9771 13.5886 15.9771 12.9999C15.9765 12.2105 15.6625 11.4536 15.1042 10.8955C14.5459 10.3373 13.7888 10.0237 12.9994 10.0234ZM19.9587 7.73543C19.8071 7.35141 19.5783 7.00263 19.2864 6.71071C18.9945 6.4188 18.6457 6.18997 18.2617 6.03844C17.0898 5.57583 14.2996 5.67963 12.9994 5.67963C11.6992 5.67963 8.91178 5.57193 7.73656 6.03844C7.35254 6.18997 7.00375 6.4188 6.71184 6.71071C6.41992 7.00263 6.1911 7.35141 6.03957 7.73543C5.57751 8.90731 5.68075 11.7003 5.68075 12.9994C5.68075 14.2985 5.57752 17.0881 6.0418 18.2639C6.19333 18.6479 6.42215 18.9967 6.71407 19.2886C7.00599 19.5805 7.35477 19.8093 7.73879 19.9609C8.91066 20.4235 11.7008 20.3197 13.0016 20.3197C14.3024 20.3197 17.0887 20.4274 18.2639 19.9609C18.6479 19.8093 18.9967 19.5805 19.2886 19.2886C19.5805 18.9967 19.8094 18.6479 19.9609 18.2639C20.4268 17.092 20.3197 14.299 20.3197 12.9999C20.3197 11.7008 20.4268 8.91177 19.9609 7.73599L19.9587 7.73543ZM12.9994 17.5758C12.0944 17.5758 11.2097 17.3075 10.4572 16.8047C9.70466 16.3019 9.11816 15.5872 8.77182 14.7511C8.42548 13.9149 8.33486 12.9949 8.51142 12.1072C8.68798 11.2196 9.1238 10.4042 9.76375 9.76429C10.4037 9.12434 11.219 8.68853 12.1067 8.51197C12.9943 8.33541 13.9144 8.42603 14.7505 8.77237C15.5866 9.1187 16.3013 9.70521 16.8041 10.4577C17.3069 11.2102 17.5753 12.0949 17.5753 12.9999C17.576 13.6011 17.4582 14.1964 17.2285 14.7519C16.9988 15.3074 16.6617 15.8122 16.2367 16.2372C15.8116 16.6623 15.3069 16.9993 14.7514 17.229C14.1959 17.4587 13.6005 17.5766 12.9994 17.5758ZM17.7639 9.30016C17.5526 9.30027 17.3461 9.23773 17.1704 9.12043C16.9946 9.00313 16.8577 8.83636 16.7767 8.64121C16.6958 8.44605 16.6746 8.23128 16.7157 8.02405C16.7569 7.81683 16.8585 7.62646 17.0079 7.47703C17.1572 7.3276 17.3476 7.22582 17.5548 7.18457C17.762 7.14331 17.9768 7.16443 18.1719 7.24525C18.3671 7.32608 18.534 7.46297 18.6514 7.63863C18.7688 7.81429 18.8314 8.02081 18.8314 8.23208C18.832 8.37238 18.8049 8.51141 18.7516 8.64121C18.6984 8.771 18.62 8.889 18.521 8.98844C18.422 9.08788 18.3044 9.1668 18.1749 9.22068C18.0453 9.27455 17.9064 9.30232 17.7661 9.30239L17.7639 9.30016ZM22.8208 0.499939H3.17796C2.46756 0.499939 1.78625 0.782145 1.28393 1.28447C0.781595 1.7868 0.49939 2.46811 0.49939 3.17851L0.49939 22.8214C0.49939 23.5318 0.781595 24.2131 1.28393 24.7154C1.78625 25.2177 2.46756 25.4999 3.17796 25.4999H22.8208C23.5312 25.4999 24.2125 25.2177 24.7149 24.7154C25.2172 24.2131 25.4994 23.5318 25.4994 22.8214V3.17851C25.4994 2.46811 25.2172 1.7868 24.7149 1.28447C24.2125 0.782145 23.5312 0.499939 22.8208 0.499939ZM21.8655 16.683C21.7935 18.1132 21.467 19.3805 20.4229 20.4218C19.3789 21.4631 18.1127 21.7963 16.6841 21.8643C15.2103 21.9475 10.7918 21.9475 9.31803 21.8643C7.88778 21.7924 6.62495 21.4653 5.57919 20.4218C4.53343 19.3783 4.20475 18.1104 4.13667 16.683C4.05352 15.2086 4.05352 10.7896 4.13667 9.3169C4.20865 7.88666 4.5312 6.61936 5.57919 5.57806C6.62718 4.53677 7.89336 4.20753 9.31803 4.13945C10.7918 4.0563 15.2103 4.0563 16.6841 4.13945C18.1143 4.21143 19.3811 4.53844 20.4229 5.58197C21.4648 6.6255 21.7974 7.89335 21.8655 9.3236C21.9486 10.7923 21.9486 15.2075 21.8655 16.683Z" fill="#918E9B"/>
</svg>
