<svg width="26" height="26" viewBox="0 0 26 26" fill="none" xmlns="http://www.w3.org/2000/svg">
<path d="M22.8208 0.499939H3.17796C1.69917 0.499939 0.49939 1.69972 0.49939 3.17851V22.8214C0.49939 24.3002 1.69917 25.4999 3.17796 25.4999H22.8208C24.2996 25.4999 25.4994 24.3002 25.4994 22.8214V3.17851C25.4994 1.69972 24.2996 0.499939 22.8208 0.499939ZM20.092 9.36155C20.1032 9.5178 20.1032 9.67963 20.1032 9.83588C20.1032 14.674 16.4201 20.2488 9.69024 20.2488C7.61435 20.2488 5.68912 19.6461 4.07082 18.6082C4.36658 18.6417 4.65118 18.6528 4.95252 18.6528C6.66568 18.6528 8.23935 18.0725 9.49493 17.0903C7.88778 17.0569 6.53734 16.0022 6.07417 14.5513C6.63778 14.635 7.1456 14.635 7.72595 14.4843C6.05185 14.1439 4.79626 12.6707 4.79626 10.8906V10.8459C5.28176 11.1194 5.85095 11.2868 6.44805 11.3091C5.94606 10.9752 5.53454 10.5222 5.25021 9.99054C4.96588 9.45889 4.8176 8.86512 4.81859 8.26222C4.81859 7.58141 4.99716 6.95641 5.31524 6.41512C7.11769 8.6361 9.82417 10.087 12.8599 10.2432C12.3409 7.75998 14.1992 5.74547 16.4313 5.74547C17.486 5.74547 18.4347 6.18632 19.1043 6.90061C19.9302 6.74436 20.7226 6.43744 21.4257 6.01891C21.1523 6.86713 20.5775 7.58141 19.8186 8.03342C20.5552 7.9553 21.2695 7.74882 21.928 7.46423C21.4313 8.19525 20.8063 8.84257 20.092 9.36155Z" fill="#918E9B"/>
</svg>
