<svg height="1026pt" preserveAspectRatio="xMidYMid meet" viewBox="0 0 1024 1026" width="1024pt" xmlns="http://www.w3.org/2000/svg"><g transform="matrix(.1 0 0 -.1 0 1026)"><path d="m915 10249c-49-4-114-15-142-24-29-8-76-21-103-29-28-8-65-23-83-35-17-11-63-37-102-57-53-27-96-62-176-144-59-60-118-127-130-148-13-22-37-58-52-80-30-43-89-204-109-299-15-73-24-8282-9-8488 5-78 17-154 29-190 10-33 27-84 36-113 44-140 217-353 376-461 120-83 217-124 370-159 70-16 348-17 4305-17h4230l105 27c205 52 365 149 514 310 116 127 184 250 233 425l28 98v4245c0 4596 4 4297-54 4465-54 155-119 254-255 390-145 144-295 226-501 273-64 15-449 16-4245 18-2296 1-4215-2-4265-7zm1005-2959c12-22 15-265 4-293-3-9-22-19-42-22-280-43-355-87-404-235-21-62-22-89-28-600-6-500-8-540-28-615-28-105-67-203-92-230-11-12-20-25-20-29 0-5-29-35-65-68s-65-64-65-70 29-40 65-76c51-50 78-89 116-167 81-161 80-157 89-770 7-562 9-587 53-671 18-36 73-86 119-110 33-17 160-26 333-25 78 1 98 5 150 30 103 50 133 90 183 245l26 81 4 1215c2 848 6 1218 14 1227 8 10 56 13 197 13 102 0 192-4 199-8 10-7 12-252 9-1263l-3-1254-22-90c-85-346-296-524-667-565-85-10-417 12-465 30-14 5-44 14-68 20s-81 29-128 51c-68 33-100 57-163 120-69 70-82 89-106 156-58 164-65 248-65 794 0 544 0 547-62 656-54 96-170 176-273 189-27 4-56 13-62 22-18 22-18 272 0 295 7 10 38 22 72 28 154 28 277 146 308 298 5 25 13 287 17 581 6 461 9 544 24 600 9 36 21 86 26 111 16 85 144 241 245 299 107 61 183 83 360 104 168 21 202 20 215-4zm6706-10c204-38 326-108 430-245 43-57 61-92 79-157 39-144 45-237 45-744 0-475 1-493 22-560 12-38 39-93 61-122 43-60 138-126 201-143 23-5 59-15 81-22l40-12 3-142c3-165 3-164-90-183-79-15-109-30-179-91-42-36-67-69-95-126l-39-78-6-550c-6-593-12-663-62-775-72-165-173-257-352-323-84-31-149-44-314-58-116-11-125-10-138 7-18 24-19 294-1 312 7 7 37 12 67 12 31 1 74 8 96 16 22 9 58 19 80 23 98 18 168 88 206 206 9 29 14 188 19 585 7 540 7 546 32 635 14 50 35 110 48 135 29 56 110 165 144 191 53 42 53 56-1 108-65 62-137 172-167 257-50 139-56 209-56 695 0 259-4 480-11 526-15 110-59 193-131 244-31 23-154 56-252 69-38 5-73 14-77 22-13 19-11 276 2 300 10 19 17 20 112 13 56-3 148-15 203-25zm-5960-221c90-51 135-136 134-254-1-107-48-183-142-231-82-42-156-46-243-13-91 34-164 147-165 255 0 50 37 156 65 187 92 98 237 121 351 56zm1989-898c112-25 149-37 251-87 120-58 175-97 264-184 128-124 240-306 288-465 57-193 65-250 66-465 1-177-2-220-22-315-25-116-27-126-71-245-28-76-43-105-96-189-48-75-131-176-195-238-34-32-144-105-207-137-161-81-317-116-513-116-117 0-152 4-260 31-371 91-625 329-760 714-79 225-97 517-46 775 35 177 46 218 72 275 177 381 425 582 804 651 81 14 351 12 425-5zm2635-1c211-45 306-96 455-247 105-107 139-161 195-318 55-155 80-312 87-544 5-167 3-205-8-212-8-5-362-9-790-9-691 0-778-2-789-16-28-33 35-298 92-381 98-147 117-168 219-231 126-78 289-108 528-99 186 8 253 18 390 63 57 19 110 34 118 34 7 0 17-10 22-22 23-60 58-294 48-320-9-26-162-73-352-109-88-17-153-22-325-23-220-1-296 7-410 44-30 10-73 23-95 30-135 42-353 189-427 288-106 145-141 200-158 251-11 31-30 88-43 126-44 127-62 270-62 490 0 205 9 274 55 445 59 220 199 428 392 582 98 80 259 149 425 183 79 17 345 13 433-5z"/><path d="m4259 5783c-93-23-159-64-244-148-191-189-264-435-237-797 10-131 17-170 49-269 40-123 104-232 132-227 25 4 41-11 41-38 0-58 125-150 251-185 65-18 90-20 199-14 145 7 194 19 221 53 11 14 25 22 33 19 25-10 78 23 144 90 75 76 126 153 142 214 6 24 17 53 24 64 60 94 82 390 48 637-40 290-208 516-442 594-70 23-281 27-361 7z"/><path d="m6955 5819c-133-22-279-107-358-207-63-80-115-190-143-299-25-101-24-120 13-134 35-13 1079-12 1104 1 53 29-1 276-90 412-51 79-95 122-165 163-90 52-256 82-361 64z"/></g></svg>